<?xml version="1.0" encoding="utf-8"?>
<!-- Generator: Adobe Illustrator 18.1.1, SVG Export Plug-In . SVG Version: 6.00 Build 0)  -->
<svg version="1.1" id="Ebene_1" xmlns="http://www.w3.org/2000/svg" xmlns:xlink="http://www.w3.org/1999/xlink" x="0px" y="0px"
	 viewBox="0 0 106 30" enable-background="new 0 0 106 30" xml:space="preserve">
<g>
	<path d="M94.5,5.9V9c1.3,0.1,3.4,0.3,3.4,2.9V18c0,2.6-2.2,2.8-3.4,2.9V24c0.8,0,6.4,0.2,6.4-6v-6.1C100.9,5.7,95.3,5.9,94.5,5.9
		 M19,17.6h-3v0.6c0,2.2-1.8,2.8-2.4,2.9V24c1,0,5.4-1.2,5.4-6.3V17.6z M19,12.2c0-5.1-4.4-6.3-5.4-6.3v2.9c0.6,0.1,2.4,0.7,2.4,2.9
		v0.6L19,12.2L19,12.2z M9.4,11.7c0-2.2,1.8-2.8,2.4-2.9V5.9c-1,0-5.4,1.2-5.4,6.3v5.7c0,5.1,4.4,6.3,5.4,6.3v-2.9
		c-0.6-0.1-2.4-0.7-2.4-2.9V11.7z M64,11.5h3.4c-0.1-1.8-0.7-5.6-6-5.6h-1.3v3h1.3C63.9,8.9,63.9,10.3,64,11.5 M58.5,18.5h-3.4
		c0.1,1.8,0.7,5.6,6,5.6h1.3v-3h-1.3C58.7,21.1,58.7,19.7,58.5,18.5 M65.5,14.8c-0.6-0.3-1.9-0.7-3.1-1.1c0,0-1.6-0.5-2.1-0.8
		c-1.4-0.6-1.7-1-1.7-1.9V6.3c0,0-3.3,0.5-3.4,5.4c0,1.9,1.1,3,2,3.5c0.6,0.3,1.9,0.7,3.1,1.1c0,0,1.6,0.5,2.1,0.8
		c1.4,0.6,1.7,1,1.7,1.9v4.7c0,0,3.3-0.5,3.4-5.4C67.4,16.5,66.4,15.3,65.5,14.8 M89.8,24.1h3.1V5.9h-3.1V24.1z M80.5,13.1h-4.7V5.9
		h-3.1v18.2h3.1v-7.8h4.7V13.1z M77.4,24.1h8.1V21h-8.1V24.1z M77.4,9h8.1V5.9h-8.1V9z M27.8,24.1H36V21h-8.1v3.1H27.8z M23.1,24.1
		h3.1V5.9h-3.1V24.1z M47.9,18.3c0,2.2-1.8,2.8-2.4,2.9v2.9c1,0,5.4-1.2,5.4-6.3v-5.7c0-5.1-4.4-6.3-5.4-6.3v2.9
		c0.6,0.1,2.4,0.7,2.4,2.9V18.3z M41.2,11.7c0-2.2,1.8-2.8,2.4-2.9V5.9c-1,0-5.4,1.2-5.4,6.3v5.7c0,5.1,4.4,6.3,5.4,6.3v-2.9
		c-0.6-0.1-2.4-0.7-2.4-2.9V11.7z M106,26.9H0V30h106V26.9z M0,0h106v3.1H0V0z"/>
</g>
</svg>
